Coordinates
version=1
nRows=8
nColumns=63
inDegrees=yes

Units are S.I. units (second, meters, Newtons, ...)
If the header above contains a line with 'inDegrees', this indicates whether rotational values are in degrees (yes) or radians (no).

endheader
time	pelvis_tilt	pelvis_list	pelvis_rotation	pelvis_tx	pelvis_ty	pelvis_tz	hip_flexion_r	hip_adduction_r	hip_rotation_r	knee_angle_r	knee_angle_r_beta	ankle_angle_r	subtalar_angle_r	mtp_angle_r	hip_flexion_l	hip_adduction_l	hip_rotation_l	knee_angle_l	knee_angle_l_beta	ankle_angle_l	subtalar_angle_l	mtp_angle_l	L5_S1_Flex_Ext	L5_S1_Lat_Bending	L5_S1_axial_rotation	L4_L5_Flex_Ext	L4_L5_Lat_Bending	L4_L5_axial_rotation	L3_L4_Flex_Ext	L3_L4_Lat_Bending	L3_L4_axial_rotation	L2_L3_Flex_Ext	L2_L3_Lat_Bending	L2_L3_axial_rotation	L1_L2_Flex_Ext	L1_L2_Lat_Bending	L1_L2_axial_rotation	L1_T12_Flex_Ext	L1_T12_Lat_Bending	L1_T12_axial_rotation	Abs_r3	Abs_r2	Abs_r1	Abs_t1	Abs_t2	neck_flexion	neck_bending	neck_rotation	arm_flex_r	arm_add_r	arm_rot_r	elbow_flex_r	pro_sup_r	wrist_flex_r	wrist_dev_r	arm_flex_l	arm_add_l	arm_rot_l	elbow_flex_l	pro_sup_l	wrist_flex_l	wrist_dev_l
      2.01666667	      3.09872247	     -7.79960644	     85.75746154	      0.32413213	      1.05906397	      0.35669865	      1.82811702	     -3.04137059	     -0.62225029	      7.37327672	      0.12868796	     31.26683015	      7.61140597	      0.00000000	      0.76241880	      1.79077680	      4.57507059	      3.73667423	      0.06521727	     28.76383554	    -14.27450016	      0.00000000	      0.32895753	      0.11162165	      0.34744895	      0.61090702	      0.14845680	      0.36916451	      0.54044432	      0.27139688	      0.36916451	      0.37596556	      0.27139688	      0.30401783	      0.30546996	      0.22761887	      0.28230227	      0.18796633	      0.17290194	      0.26058671	      2.34971071	      1.26268644	      1.93240684	      0.00000000	      0.00000000	     28.39810637	      0.62703280	     -6.47591395	     16.92243262	     -7.65600463	     78.93966652	     41.17920765	     20.28871010	      3.27939646	      6.97168780	     14.02339960	     -7.12756245	     73.45288015	     34.94912545	     57.84658818	     -8.50374916	    -17.62766054
      2.03333333	      3.13182066	     -7.73527780	     86.12121173	      0.32392868	      1.05917061	      0.35646024	      1.64264411	     -2.99623806	     -1.02007027	      7.32427591	      0.12783273	     31.08766787	      7.58793791	      0.00000000	      0.73324521	      1.74234586	      4.64749026	      3.80738185	      0.06645135	     28.75628026	    -13.84588182	      0.00000000	      0.32214172	      0.11280589	      0.26350783	      0.59824938	      0.15003183	      0.27997707	      0.52924663	      0.27427624	      0.27997707	      0.36817577	      0.27427624	      0.23056935	      0.29914080	      0.23003377	      0.21410011	      0.18407178	      0.17473632	      0.19763087	      2.30102608	      1.27608278	      1.46555150	      0.00000000	      0.00000000	     28.39875437	      0.89475115	     -6.00980334	     17.04402378	     -7.54667840	     79.39818328	     41.15687474	     19.25102704	      3.22559503	      6.91555922	     13.90970571	     -7.20481275	     72.61767429	     34.86405400	     59.10233476	     -7.92341989	    -17.24460520
      2.05000000	      3.16114579	     -7.68629060	     86.51240278	      0.32351785	      1.05930432	      0.35633129	      1.51862203	     -3.02774214	     -2.32019441	      7.33570315	      0.12803217	     31.18373122	      8.78301470	      0.00000000	      0.73103034	      1.71471511	      4.72281834	      3.87576372	      0.06764484	     28.67677140	    -13.44109350	      0.00000000	      0.31719320	      0.11620719	      0.18822397	      0.58905949	      0.15455557	      0.19998797	      0.52111670	      0.28254617	      0.19998797	      0.36252010	      0.28254617	      0.16469597	      0.29454560	      0.23696971	      0.15293198	      0.18124419	      0.18000494	      0.14116798	      2.26567929	      1.31455903	      1.04684525	      0.00000000	      0.00000000	     28.39671571	      1.17420045	     -5.42469788	     17.06060976	     -7.56587307	     79.29188024	     41.27838850	     19.27597607	      3.09867494	      6.75687054	     13.98018995	     -7.26698807	     72.33435310	     34.78085963	     59.48752908	     -7.01358053	    -16.99935139
      2.06666667	      3.21167175	     -7.63607732	     86.88071275	      0.32326920	      1.05949471	      0.35635871	      1.37558016	     -2.93980014	     -2.19452205	      7.24781997	      0.12649832	     31.08289100	      8.09145156	      0.00000000	      0.74249012	      1.65129800	      4.84872234	      3.96025195	      0.06911944	     28.57041775	    -13.10732574	      0.00000000	      0.30896313	      0.11974152	      0.11601576	      0.57377543	      0.15925622	      0.12326674	      0.50759553	      0.29113952	      0.12326674	      0.35311396	      0.29113952	      0.10151379	      0.28690317	      0.24417690	      0.09426280	      0.17654153	      0.18547961	      0.08701182	      2.20689276	      1.35453999	      0.64524484	      0.00000000	      0.00000000	     28.39188313	      1.38347472	     -4.91193040	     17.12102849	     -7.62475895	     79.04586998	     41.50307652	     19.34924547	      2.92273326	      6.43645644	     14.03503434	     -7.38464853	     71.82202119	     34.80818047	     59.72816841	     -5.75898175	    -16.62911920
      2.08333333	      3.28657504	     -7.43349857	     87.86196394	      0.32269091	      1.05998518	      0.35671687	      0.78373103	     -2.79809773	     -2.59186667	      6.63496099	      0.11580192	     30.79547758	      7.43307205	      0.00000000	      1.14885160	      1.37663574	      0.78219666	      5.15715559	      0.09000935	     30.36013891	     -6.41466673	      0.00000000	      0.26722585	      0.11375358	     -0.06167745	      0.49626512	      0.15129226	     -0.06553229	      0.43902535	      0.27658045	     -0.06553229	      0.30541242	      0.27658045	     -0.05396777	      0.24814592	      0.23196630	     -0.05011293	      0.15269285	      0.17620429	     -0.04625809	      1.90876752	      1.28680322	     -0.34303146	      0.00000000	      0.00000000	     28.38771849	      1.52640711	     -4.74524506	     17.05979360	     -7.49459747	     77.76878076	     41.42016706	     22.59520802	      2.82515685	      5.84193220	     14.21007286	     -7.77111241	     71.46660813	     35.56946903	     58.11795738	     -5.12632204	    -14.63061954
      2.10000000	      3.22160918	     -7.51526160	     87.70815447	      0.32268533	      1.05997469	      0.35669984	      1.03567657	     -2.82471541	     -1.21776298	      6.96116635	      0.12149527	     30.88103774	      5.74847801	      0.00000000	      0.76728593	      1.63660799	      5.58031490	      4.11283203	      0.07178246	     27.96009727	    -13.17492168	      0.00000000	      0.27824011	      0.11287193	     -0.04561937	      0.51671970	      0.15011967	     -0.04847058	      0.45712067	      0.27443682	     -0.04847058	      0.31800062	      0.27443682	     -0.03991694	      0.25837376	      0.23016844	     -0.03706573	      0.15898640	      0.17483862	     -0.03421452	      1.98744126	      1.27682987	     -0.25372123	      0.00000000	      0.00000000	     28.37917340	      1.64699510	     -3.98195233	     17.27539793	     -7.75686833	     77.93785210	     42.01522748	     20.50444536	      2.57767874	      5.48836463	     14.16304332	     -7.60203940	     70.90232095	     34.83169100	     59.14715115	     -3.30693933	    -16.24746594
      2.11666667	      3.20022267	     -7.52164005	     87.94383807	      0.32257586	      1.06011422	      0.35697655	      1.04081490	     -2.84533622	     -1.35655957	      7.00229635	      0.12221313	     30.96378812	      5.63884992	      0.00000000	      0.90194221	      1.61606591	      4.74517701	      4.31386534	      0.07529115	     28.18355760	    -11.71863023	      0.00000000	      0.26825412	      0.10679857	     -0.09308680	      0.49817472	      0.14204210	     -0.09890472	      0.44071469	      0.25967004	     -0.09890472	      0.30658763	      0.25967004	     -0.08145095	      0.24910077	      0.21778364	     -0.07563302	      0.15328040	      0.16543098	     -0.06981510	      1.91611234	      1.20812678	     -0.51772085	      0.00000000	      0.00000000	     28.37362132	      1.81620779	     -3.49199584	     17.30967184	     -7.81074396	     77.11972797	     42.27021272	     21.29414980	      2.46038618	      5.08912229	     14.19569875	     -7.69860597	     70.56689348	     34.91613037	     58.51061656	     -2.42456269	    -16.25417738
      2.13333333	      3.14888961	     -7.50315583	     87.96986956	      0.32261526	      1.06024230	      0.35719863	      1.00552402	     -2.85615934	     -0.59528344	      6.96386445	      0.12154236	     30.83932120	      4.64874482	      0.00000000	      0.84001587	      1.70948788	      6.02411295	      4.17778239	      0.07291606	     27.48199508	    -13.56869265	      0.00000000	      0.25430914	      0.09895615	     -0.10255567	      0.47227751	      0.13161168	     -0.10896540	      0.41780449	      0.24060199	     -0.10896540	      0.29064992	      0.24060199	     -0.08973622	      0.23615147	      0.20179139	     -0.08332649	      0.14531225	      0.15328308	     -0.07691676	      1.81650479	      1.11941180	     -0.57038389	      0.00000000	      0.00000000	     28.36984923	      1.90350313	     -3.06472568	     17.44934617	     -7.87879920	     76.69640636	     42.54291460	     21.34789581	      2.38075058	      4.62040179	     14.22856887	     -7.81604316	     70.31224897	     35.04971433	     57.33949216	     -1.59421004	    -16.26306924
